# xmcd
#
# Track frame offsets:
#	150
#	20075
#	37117
#	54270
#	73935
#	91858
#	111923
#	125201
#	144313
#	164248
#	181296
#	198468
#	218036
#	235883
#	255953
#	269218
#	299738
#
# Disc length: 4008 seconds
#
# Revision: 1
# Processed by: cddbd v1.5.1PL2 Copyright (c) Steve Scherf et al.
# Submitted via: audiograbber 1.83.01
#
DISCID=150fa611
DTITLE=Various Artist - SC2346
DYEAR=1900
DGENRE=Karaoke
TTITLE0=Soggy Bottom Boys - I Am A Man of Constant Sorrow
TTITLE1=Brooks and Dunn - Ain't Nothing 'Bout You
TTITLE2=Tim McGraw - My Next Thirty Years
TTITLE3=Lonestar - I'm Already There
TTITLE4=Blake Shelton - Austin
TTITLE5=Alan Jackson - Where I Come From
TTITLE6=Toby Keith - I'm Just Talkin' About Tonight
TTITLE7=Keith Urban - But For The Grace of God
TTITLE8=Soggy Bottom Boys - I Am A Man of Constant Sorrow (Vocals)
TTITLE9=Brooks and Dunn - Ain't Nothing 'Bout You (Vocals)
TTITLE10=Tim McGraw - My Next Thirty Years (Vocals)
TTITLE11=Lonestar - I'm Already There (Vocals)
TTITLE12=Blake Shelton - Austin (Vocals)
TTITLE13=Alan Jackson - Where I Come From (Vocals)
TTITLE14=Toby Keith - I'm Just Talkin' About Tonight (Vocals)
TTITLE15=Keith Urban - But For The Grace of God (Vocals)
TTITLE16=Data - Data Track
EXTD=
EXTT0=
EXTT1=
EXTT2=
EXTT3=
EXTT4=
EXTT5=
EXTT6=
EXTT7=
EXTT8=
EXTT9=
EXTT10=
EXTT11=
EXTT12=
EXTT13=
EXTT14=
EXTT15=
EXTT16=
PLAYORDER=
